<?xml version="1.0" encoding="UTF-8" standalone="no"?>
<!DOCTYPE svg PUBLIC "-//W3C//DTD SVG 1.1//EN"
 "http://www.w3.org/Graphics/SVG/1.1/DTD/svg11.dtd">
<!-- Generated by graphviz version 8.0.3 (20230416.2022)
 -->
<!-- Title: controllers_diagram Pages: 1 -->
<svg width="527pt" height="536pt"
 viewBox="0.00 0.00 527.00 536.00" xmlns="http://www.w3.org/2000/svg" xmlns:xlink="http://www.w3.org/1999/xlink">
<g id="graph0" class="graph" transform="scale(1 1) rotate(0) translate(4 532)">
<title>controllers_diagram</title>
<polygon fill="none" stroke="none" points="-4,4 -4,-532 523,-532 523,4 -4,4"/>
<!-- _diagram_info -->
<g id="node1" class="node">
<title>_diagram_info</title>
<text text-anchor="start" x="92" y="-217.6" font-family="Times,serif" font-size="13.00">Controllers diagram</text>
<text text-anchor="start" x="92" y="-203.6" font-family="Times,serif" font-size="13.00">Date: Apr 20 2023 &#45; 16:33</text>
<text text-anchor="start" x="92" y="-189.6" font-family="Times,serif" font-size="13.00">Migration version: 20230418194022</text>
<text text-anchor="start" x="92" y="-175.6" font-family="Times,serif" font-size="13.00">Generated by RailRoady 1.6.0</text>
<text text-anchor="start" x="92" y="-161.6" font-family="Times,serif" font-size="13.00">http://railroady.prestonlee.com</text>
</g>
<!-- AboutController -->
<g id="node2" class="node">
<title>AboutController</title>
<path fill="none" stroke="black" d="M124,-434.5C124,-434.5 206,-434.5 206,-434.5 212,-434.5 218,-440.5 218,-446.5 218,-446.5 218,-515.5 218,-515.5 218,-521.5 212,-527.5 206,-527.5 206,-527.5 124,-527.5 124,-527.5 118,-527.5 112,-521.5 112,-515.5 112,-515.5 112,-446.5 112,-446.5 112,-440.5 118,-434.5 124,-434.5"/>
<text text-anchor="middle" x="165" y="-512.3" font-family="Times,serif" font-size="14.00">AboutController</text>
<polyline fill="none" stroke="black" points="112,-504.5 218,-504.5"/>
<text text-anchor="start" x="120" y="-489.3" font-family="Times,serif" font-size="14.00">index</text>
<polyline fill="none" stroke="black" points="112,-481.5 218,-481.5"/>
<polyline fill="none" stroke="black" points="112,-457.5 218,-457.5"/>
<text text-anchor="start" x="120" y="-442.3" font-family="Times,serif" font-size="14.00">_layout</text>
</g>
<!-- AdminController -->
<g id="node3" class="node">
<title>AdminController</title>
<path fill="none" stroke="black" d="M264,-434.5C264,-434.5 350,-434.5 350,-434.5 356,-434.5 362,-440.5 362,-446.5 362,-446.5 362,-515.5 362,-515.5 362,-521.5 356,-527.5 350,-527.5 350,-527.5 264,-527.5 264,-527.5 258,-527.5 252,-521.5 252,-515.5 252,-515.5 252,-446.5 252,-446.5 252,-440.5 258,-434.5 264,-434.5"/>
<text text-anchor="middle" x="307" y="-512.3" font-family="Times,serif" font-size="14.00">AdminController</text>
<polyline fill="none" stroke="black" points="252,-504.5 362,-504.5"/>
<text text-anchor="start" x="260" y="-489.3" font-family="Times,serif" font-size="14.00">index</text>
<polyline fill="none" stroke="black" points="252,-481.5 362,-481.5"/>
<polyline fill="none" stroke="black" points="252,-457.5 362,-457.5"/>
<text text-anchor="start" x="260" y="-442.3" font-family="Times,serif" font-size="14.00">_layout</text>
</g>
<!-- ApplicationController -->
<g id="node4" class="node">
<title>ApplicationController</title>
<path fill="none" stroke="black" d="M152,-28.5C152,-28.5 264,-28.5 264,-28.5 270,-28.5 276,-34.5 276,-40.5 276,-40.5 276,-109.5 276,-109.5 276,-115.5 270,-121.5 264,-121.5 264,-121.5 152,-121.5 152,-121.5 146,-121.5 140,-115.5 140,-109.5 140,-109.5 140,-40.5 140,-40.5 140,-34.5 146,-28.5 152,-28.5"/>
<text text-anchor="middle" x="208" y="-106.3" font-family="Times,serif" font-size="14.00">ApplicationController</text>
<polyline fill="none" stroke="black" points="140,-98.5 276,-98.5"/>
<text text-anchor="start" x="148" y="-83.3" font-family="Times,serif" font-size="14.00">set_locale</text>
<polyline fill="none" stroke="black" points="140,-75.5 276,-75.5"/>
<polyline fill="none" stroke="black" points="140,-51.5 276,-51.5"/>
<text text-anchor="start" x="148" y="-36.3" font-family="Times,serif" font-size="14.00">_layout</text>
</g>
<!-- ExecutionController -->
<g id="node5" class="node">
<title>ExecutionController</title>
<path fill="none" stroke="black" d="M404,-392.5C404,-392.5 507,-392.5 507,-392.5 513,-392.5 519,-398.5 519,-404.5 519,-404.5 519,-473.5 519,-473.5 519,-479.5 513,-485.5 507,-485.5 507,-485.5 404,-485.5 404,-485.5 398,-485.5 392,-479.5 392,-473.5 392,-473.5 392,-404.5 392,-404.5 392,-398.5 398,-392.5 404,-392.5"/>
<text text-anchor="middle" x="455.5" y="-470.3" font-family="Times,serif" font-size="14.00">ExecutionController</text>
<polyline fill="none" stroke="black" points="392,-462.5 519,-462.5"/>
<text text-anchor="start" x="400" y="-447.3" font-family="Times,serif" font-size="14.00">index</text>
<polyline fill="none" stroke="black" points="392,-439.5 519,-439.5"/>
<polyline fill="none" stroke="black" points="392,-415.5 519,-415.5"/>
<text text-anchor="start" x="400" y="-400.3" font-family="Times,serif" font-size="14.00">_layout</text>
</g>
<!-- FailedExecutionsController -->
<g id="node6" class="node">
<title>FailedExecutionsController</title>
<path fill="none" stroke="black" d="M334,-70.5C334,-70.5 476,-70.5 476,-70.5 482,-70.5 488,-76.5 488,-82.5 488,-82.5 488,-151.5 488,-151.5 488,-157.5 482,-163.5 476,-163.5 476,-163.5 334,-163.5 334,-163.5 328,-163.5 322,-157.5 322,-151.5 322,-151.5 322,-82.5 322,-82.5 322,-76.5 328,-70.5 334,-70.5"/>
<text text-anchor="middle" x="405" y="-148.3" font-family="Times,serif" font-size="14.00">FailedExecutionsController</text>
<polyline fill="none" stroke="black" points="322,-140.5 488,-140.5"/>
<text text-anchor="start" x="330" y="-125.3" font-family="Times,serif" font-size="14.00">index</text>
<polyline fill="none" stroke="black" points="322,-117.5 488,-117.5"/>
<polyline fill="none" stroke="black" points="322,-93.5 488,-93.5"/>
<text text-anchor="start" x="330" y="-78.3" font-family="Times,serif" font-size="14.00">_layout</text>
</g>
<!-- PassedExecutionsController -->
<g id="node7" class="node">
<title>PassedExecutionsController</title>
<path fill="none" stroke="black" d="M278,-266.5C278,-266.5 423,-266.5 423,-266.5 429,-266.5 435,-272.5 435,-278.5 435,-278.5 435,-347.5 435,-347.5 435,-353.5 429,-359.5 423,-359.5 423,-359.5 278,-359.5 278,-359.5 272,-359.5 266,-353.5 266,-347.5 266,-347.5 266,-278.5 266,-278.5 266,-272.5 272,-266.5 278,-266.5"/>
<text text-anchor="middle" x="350.5" y="-344.3" font-family="Times,serif" font-size="14.00">PassedExecutionsController</text>
<polyline fill="none" stroke="black" points="266,-336.5 435,-336.5"/>
<text text-anchor="start" x="274" y="-321.3" font-family="Times,serif" font-size="14.00">index</text>
<polyline fill="none" stroke="black" points="266,-313.5 435,-313.5"/>
<polyline fill="none" stroke="black" points="266,-289.5 435,-289.5"/>
<text text-anchor="start" x="274" y="-274.3" font-family="Times,serif" font-size="14.00">_layout</text>
</g>
<!-- ResultsController -->
<g id="node8" class="node">
<title>ResultsController</title>
<path fill="none" stroke="black" d="M12,-0.5C12,-0.5 100,-0.5 100,-0.5 106,-0.5 112,-6.5 112,-12.5 112,-12.5 112,-111.5 112,-111.5 112,-117.5 106,-123.5 100,-123.5 100,-123.5 12,-123.5 12,-123.5 6,-123.5 0,-117.5 0,-111.5 0,-111.5 0,-12.5 0,-12.5 0,-6.5 6,-0.5 12,-0.5"/>
<text text-anchor="middle" x="56" y="-108.3" font-family="Times,serif" font-size="14.00">ResultsController</text>
<polyline fill="none" stroke="black" points="0,-100.5 112,-100.5"/>
<text text-anchor="start" x="8" y="-85.3" font-family="Times,serif" font-size="14.00">destroy</text>
<text text-anchor="start" x="8" y="-70.3" font-family="Times,serif" font-size="14.00">index</text>
<text text-anchor="start" x="8" y="-55.3" font-family="Times,serif" font-size="14.00">show</text>
<polyline fill="none" stroke="black" points="0,-47.5 112,-47.5"/>
<polyline fill="none" stroke="black" points="0,-23.5 112,-23.5"/>
<text text-anchor="start" x="8" y="-8.3" font-family="Times,serif" font-size="14.00">_layout</text>
</g>
<!-- TextGeneratorController -->
<g id="node9" class="node">
<title>TextGeneratorController</title>
<path fill="none" stroke="black" d="M96,-308.5C96,-308.5 223,-308.5 223,-308.5 229,-308.5 235,-314.5 235,-320.5 235,-320.5 235,-389.5 235,-389.5 235,-395.5 229,-401.5 223,-401.5 223,-401.5 96,-401.5 96,-401.5 90,-401.5 84,-395.5 84,-389.5 84,-389.5 84,-320.5 84,-320.5 84,-314.5 90,-308.5 96,-308.5"/>
<text text-anchor="middle" x="159.5" y="-386.3" font-family="Times,serif" font-size="14.00">TextGeneratorController</text>
<polyline fill="none" stroke="black" points="84,-378.5 235,-378.5"/>
<text text-anchor="start" x="92" y="-363.3" font-family="Times,serif" font-size="14.00">generate</text>
<polyline fill="none" stroke="black" points="84,-355.5 235,-355.5"/>
<polyline fill="none" stroke="black" points="84,-331.5 235,-331.5"/>
<text text-anchor="start" x="92" y="-316.3" font-family="Times,serif" font-size="14.00">_layout</text>
</g>
</g>
</svg>
