<?xml version="1.0" encoding="UTF-8" standalone="no"?>
<!DOCTYPE svg PUBLIC "-//W3C//DTD SVG 1.1//EN"
 "http://www.w3.org/Graphics/SVG/1.1/DTD/svg11.dtd">
<!-- Generated by graphviz version 8.0.3 (20230416.2022)
 -->
<!-- Title: models_diagram Pages: 1 -->
<svg width="816pt" height="190pt"
 viewBox="0.00 0.00 816.00 190.00" xmlns="http://www.w3.org/2000/svg" xmlns:xlink="http://www.w3.org/1999/xlink">
<g id="graph0" class="graph" transform="scale(1 1) rotate(0) translate(4 186)">
<title>models_diagram</title>
<polygon fill="none" stroke="none" points="-4,4 -4,-186 812,-186 812,4 -4,4"/>
<!-- _diagram_info -->
<g id="node1" class="node">
<title>_diagram_info</title>
<text text-anchor="start" x="8" y="-115.6" font-family="Times,serif" font-size="13.00">Models diagram</text>
<text text-anchor="start" x="8" y="-101.6" font-family="Times,serif" font-size="13.00">Date: Apr 20 2023 &#45; 16:33</text>
<text text-anchor="start" x="8" y="-87.6" font-family="Times,serif" font-size="13.00">Migration version: 20230418194022</text>
<text text-anchor="start" x="8" y="-73.6" font-family="Times,serif" font-size="13.00">Generated by RailRoady 1.6.0</text>
<text text-anchor="start" x="8" y="-59.6" font-family="Times,serif" font-size="13.00">http://railroady.prestonlee.com</text>
</g>
<!-- ApplicationRecord -->
<g id="node2" class="node">
<title>ApplicationRecord</title>
<ellipse fill="none" stroke="black" cx="309" cy="-91" rx="77.19" ry="18"/>
<text text-anchor="middle" x="309" y="-87.3" font-family="Times,serif" font-size="14.00">ApplicationRecord</text>
</g>
<!-- OpenaiApi -->
<g id="node3" class="node">
<title>OpenaiApi</title>
<polygon fill="none" stroke="black" points="404,-68 404,-114 480,-114 480,-68 404,-68"/>
<text text-anchor="middle" x="442" y="-98.8" font-family="Times,serif" font-size="14.00">OpenaiApi</text>
<polyline fill="none" stroke="black" points="404,-91 480,-91"/>
<text text-anchor="middle" x="442" y="-75.8" font-family="Times,serif" font-size="14.00"> </text>
</g>
<!-- Result -->
<g id="node4" class="node">
<title>Result</title>
<path fill="none" stroke="black" d="M510,-0.5C510,-0.5 632,-0.5 632,-0.5 638,-0.5 644,-6.5 644,-12.5 644,-12.5 644,-169.5 644,-169.5 644,-175.5 638,-181.5 632,-181.5 632,-181.5 510,-181.5 510,-181.5 504,-181.5 498,-175.5 498,-169.5 498,-169.5 498,-12.5 498,-12.5 498,-6.5 504,-0.5 510,-0.5"/>
<text text-anchor="middle" x="571" y="-166.3" font-family="Times,serif" font-size="14.00">Result</text>
<polyline fill="none" stroke="black" points="498,-158.5 644,-158.5"/>
<text text-anchor="start" x="506" y="-143.3" font-family="Times,serif" font-size="14.00">pass :boolean</text>
<text text-anchor="start" x="506" y="-128.3" font-family="Times,serif" font-size="14.00">prompt :TEXT</text>
<text text-anchor="start" x="506" y="-113.3" font-family="Times,serif" font-size="14.00">generated_text :TEXT</text>
<text text-anchor="start" x="506" y="-98.3" font-family="Times,serif" font-size="14.00">created_at :datetime(6)</text>
<text text-anchor="start" x="506" y="-83.3" font-family="Times,serif" font-size="14.00">updated_at :datetime(6)</text>
<text text-anchor="start" x="506" y="-68.3" font-family="Times,serif" font-size="14.00">input_text :TEXT</text>
<text text-anchor="start" x="506" y="-53.3" font-family="Times,serif" font-size="14.00">output_text :varchar</text>
<text text-anchor="start" x="506" y="-38.3" font-family="Times,serif" font-size="14.00">passed :boolean</text>
<text text-anchor="start" x="506" y="-23.3" font-family="Times,serif" font-size="14.00">failed :boolean</text>
<text text-anchor="start" x="506" y="-8.3" font-family="Times,serif" font-size="14.00">id :INTEGER</text>
</g>
<!-- User -->
<g id="node5" class="node">
<title>User</title>
<path fill="none" stroke="black" d="M674,-15.5C674,-15.5 796,-15.5 796,-15.5 802,-15.5 808,-21.5 808,-27.5 808,-27.5 808,-154.5 808,-154.5 808,-160.5 802,-166.5 796,-166.5 796,-166.5 674,-166.5 674,-166.5 668,-166.5 662,-160.5 662,-154.5 662,-154.5 662,-27.5 662,-27.5 662,-21.5 668,-15.5 674,-15.5"/>
<text text-anchor="middle" x="735" y="-151.3" font-family="Times,serif" font-size="14.00">User</text>
<polyline fill="none" stroke="black" points="662,-143.5 808,-143.5"/>
<text text-anchor="start" x="670" y="-128.3" font-family="Times,serif" font-size="14.00">test_cycle :varchar</text>
<text text-anchor="start" x="670" y="-113.3" font-family="Times,serif" font-size="14.00">name :varchar</text>
<text text-anchor="start" x="670" y="-98.3" font-family="Times,serif" font-size="14.00">email :varchar</text>
<text text-anchor="start" x="670" y="-83.3" font-family="Times,serif" font-size="14.00">role :varchar</text>
<text text-anchor="start" x="670" y="-68.3" font-family="Times,serif" font-size="14.00">created_at :datetime(6)</text>
<text text-anchor="start" x="670" y="-53.3" font-family="Times,serif" font-size="14.00">updated_at :datetime(6)</text>
<text text-anchor="start" x="670" y="-38.3" font-family="Times,serif" font-size="14.00">test_case :varchar</text>
<text text-anchor="start" x="670" y="-23.3" font-family="Times,serif" font-size="14.00">id :INTEGER</text>
</g>
</g>
</svg>
